<svg width="26" height="26" viewBox="0 0 26 26" fill="none" xmlns="http://www.w3.org/2000/svg">
<path d="M22.0289 21.125H4.00156C3.90287 21.125 3.80514 21.1056 3.71395 21.0678C3.62277 21.03 3.53992 20.9747 3.47013 20.9049C3.40034 20.8351 3.34498 20.7522 3.30721 20.661C3.26944 20.5699 3.25 20.4721 3.25 20.3734V8.125H21.9375C22.153 8.125 22.3597 8.2106 22.512 8.36298C22.6644 8.51535 22.75 8.72201 22.75 8.9375V20.4039C22.75 20.5952 22.674 20.7786 22.5388 20.9138C22.4036 21.049 22.2202 21.125 22.0289 21.125Z" stroke="#8E8E8E" stroke-width="1.625" stroke-linecap="round" stroke-linejoin="round"/>
<path d="M3.25 8.12501V5.6875C3.25 5.47202 3.3356 5.26535 3.48798 5.11298C3.64035 4.96061 3.84701 4.875 4.0625 4.875H9.41484C9.52035 4.87464 9.62489 4.89508 9.72248 4.93516C9.82008 4.97524 9.90881 5.03418 9.98359 5.1086L13 8.12501" stroke="#8E8E8E" stroke-width="1.625" stroke-linecap="round" stroke-linejoin="round"/>
</svg>
